<svg xmlns="http://www.w3.org/2000/svg" viewBox="0 0 368.67 29.34"><path d="M12.6,17.52c0-3.78-3.69-4.5-7.08-5.67C2.67,10.86,0,9.54,0,5.85,0,2.7,2,0,5.34,0A7.24,7.24,0,0,1,9.21,1.08c.6.39.75.48,1,.48.63,0,1-.45,1.14-1.23h.48l.21,6.3h-.51A9.5,9.5,0,0,0,10,2.76,5.66,5.66,0,0,0,5.46.51c-2,0-4.2,1.17-4.2,3.39C1.26,7.17,4.65,7.8,8,8.85,11,9.81,14,11.16,14,15.3,14,19.2,11.55,22,7.56,22a7.21,7.21,0,0,1-3.6-.9l-1.47-.81a1.82,1.82,0,0,0-.9-.27c-.6,0-.9.39-1.14,1.47H0L0,14.1H.42c.51,2.61.78,3.42,1.59,4.65a7.1,7.1,0,0,0,5.58,2.82C10,21.57,12.6,20.19,12.6,17.52Z"/><path d="M29.19,21.78a4.31,4.31,0,0,1-1,.09c-1.56,0-2.46-.54-3.78-2.22-1.86,1.86-2.64,2.25-4.2,2.25-2.43,0-4.23-1.59-4.23-3.75,0-1.83,1.11-2.94,3.45-3.42l2.91-.57a8.39,8.39,0,0,0,1.83-.51V10.89c0-1.44-1.08-2.28-3-2.28-1.47,0-2.52.54-2.52,1.29s.63,1.14.63,1.83a1.38,1.38,0,1,1-2.73-.33c0-1.92,2.13-3.36,5-3.36s5.25,1.83,5.25,4.35V19c0,1.77.51,2.31,2.34,2.37ZM20.76,15c-1.62.33-2.19,1.2-2.19,3.3,0,1.8.87,2.94,2.22,2.94a3.75,3.75,0,0,0,3.39-3.57V14.16C22.26,14.67,21.6,14.82,20.76,15Z"/><path d="M30.93,21.48V21h2.16V.87H30.9V.39h4.8V11.1c1.47-2.28,2.52-3,4.26-3,3.06,0,5.76,3.36,5.76,7.11S43,21.9,39.87,21.9c-2,0-3.09-.9-4.08-3.45v3Zm11.94-6.9c0-4.11-.93-6-3-6-2.58,0-4.08,2.22-4.08,6,0,4.2,1.5,6.84,3.87,6.84C42.54,21.45,42.87,18.09,42.87,14.58Z"/><path d="M47.34,21.48V21h2.19V9H47.28V8.55H52V11.4c.75-2.31,2-3.33,3.33-3.33a2.32,2.32,0,0,1,2.37,2.28c0,1-.51,1.65-1.29,1.65a1.17,1.17,0,0,1-1.2-1.14c0-.42.21-.84.21-1.38a.63.63,0,0,0-.72-.69,1.78,1.78,0,0,0-1.14.6A8.08,8.08,0,0,0,52.14,14V21h2.4v.48Z"/><path d="M59.19,21.48l0-.48h2.13V9.09h-2V8.58H64V21H66v.48ZM60.75,2.16A1.77,1.77,0,0,1,62.52.39a1.72,1.72,0,0,1,1.77,1.68,1.78,1.78,0,0,1-1.68,1.86A1.81,1.81,0,0,1,60.75,2.16Z"/><path d="M75.87,21h2.19V11.46c0-1.89-.69-2.88-2-2.88-2.19,0-3.93,2.28-3.93,5.22V21H74.4v.48h-7V21h2.13V9H67.41V8.55h4.71v2.34C73.44,8.85,74.73,8,76.59,8a4,4,0,0,1,4.08,4v9h2.16v.48h-7Z"/><path d="M97.56,21.78a4.31,4.31,0,0,1-1,.09c-1.56,0-2.46-.54-3.78-2.22-1.86,1.86-2.64,2.25-4.2,2.25-2.43,0-4.23-1.59-4.23-3.75,0-1.83,1.11-2.94,3.45-3.42l2.91-.57a8.39,8.39,0,0,0,1.83-.51V10.89c0-1.44-1.08-2.28-3-2.28-1.47,0-2.52.54-2.52,1.29s.63,1.14.63,1.83A1.38,1.38,0,1,1,85,11.4C85,9.48,87.09,8,90,8c3,0,5.25,1.83,5.25,4.35V19c0,1.77.51,2.31,2.34,2.37ZM89.13,15c-1.62.33-2.19,1.2-2.19,3.3,0,1.8.87,2.94,2.22,2.94a3.75,3.75,0,0,0,3.39-3.57V14.16C90.63,14.67,90,14.82,89.13,15Z"/><path d="M115,.12,115.5,0l8.34,21h2.67v.48h-9.12V21h2.88l-2.61-6.72h-6.09L109.65,21h2.91v.48h-6.39V21h2.76Zm-3.21,13.44h5.58l-3.27-8.34Z"/><path d="M135.81,21H138V11.46c0-1.89-.69-2.88-2-2.88-2.19,0-3.93,2.28-3.93,5.22V21h2.28v.48h-7V21h2.13V9h-2.13V8.55h4.71v2.34c1.32-2,2.61-2.88,4.47-2.88a4,4,0,0,1,4.08,4v9h2.16v.48h-7Z"/><path d="M154.17,21.48V18.93c-1.29,2.16-2.4,3-4,3-3,0-5.73-3.3-5.73-6.87,0-3.78,2.49-6.93,5.49-6.93,1.71,0,2.67.54,4.29,2.28V.87H152V.39h4.86V21h2.4v.48Zm.21-6.81c0-3.48-1.65-6-3.9-6s-3.12,2-3.12,6.6c0,4.08,1,6.09,3.18,6.09S154.38,18.57,154.38,14.67Z"/><path d="M160.47,21.48V21h2.19V9h-2.25V8.55h4.74V11.4c.75-2.31,2-3.33,3.33-3.33a2.32,2.32,0,0,1,2.37,2.28c0,1-.51,1.65-1.29,1.65a1.17,1.17,0,0,1-1.2-1.14c0-.42.21-.84.21-1.38a.63.63,0,0,0-.72-.69,1.78,1.78,0,0,0-1.14.6A8.08,8.08,0,0,0,165.27,14V21h2.4v.48Z"/><path d="M175,14.28c0,.57,0,1.11,0,1.56,0,3.69,1.23,5.58,3.72,5.58s3.84-1.32,4.38-4h.51c-.51,2.85-2.19,4.53-5,4.53a6.49,6.49,0,0,1-6.33-6.81c0-3.78,2.7-7,5.85-7s5.49,2.79,5.49,6.21Zm2.91-5.73c-2,0-2.94,1.71-2.94,5.28h5.82C180.78,9.78,180.12,8.55,177.9,8.55Z"/><path d="M185.73,21.45c.06-.84.06-1.59.06-2.34s0-1.71-.12-2.67h.39c.87,3.48,2.4,5,5,5,1.74,0,2.94-.9,2.94-2.25,0-1.56-.87-2.1-4.14-3.21-2.94-1-4.2-2.25-4.2-4.14A3.7,3.7,0,0,1,189.33,8a6.36,6.36,0,0,1,3.39,1.23,1,1,0,0,0,.3.12c.27,0,.54-.42.66-1.05l.36,0c0,1.47,0,2.91.12,4.44h-.51c-.63-2.64-2.22-4.23-4.23-4.23-1.44,0-2.7,1-2.7,2.13s.75,1.74,3.72,2.7c3.57,1.14,4.83,2.31,4.83,4.41A4.13,4.13,0,0,1,191,21.93a5.73,5.73,0,0,1-3.15-1.05,2.55,2.55,0,0,0-.93-.48c-.39,0-.69.45-.72,1.05Z"/><path d="M212.67.12l.51-.12,8.34,21h2.67v.48h-9.12V21H218l-2.61-6.72h-6.09L207.33,21h2.91v.48h-6.39V21h2.76Zm-3.21,13.44H215l-3.27-8.34Z"/><path d="M225,21.48V21h2.19V9h-2.25V8.55h4.74V11.4c.75-2.31,2-3.33,3.33-3.33a2.32,2.32,0,0,1,2.37,2.28c0,1-.51,1.65-1.29,1.65a1.17,1.17,0,0,1-1.2-1.14c0-.42.21-.84.21-1.38a.63.63,0,0,0-.72-.69,1.78,1.78,0,0,0-1.14.6A8.08,8.08,0,0,0,229.77,14V21h2.4v.48Z"/><path d="M247,16.56c0,3.69-1.14,5.37-3.66,5.37s-3.81-1.68-3.81-4.53V9.06h-2.76V8.58h2.76V4.65A9.4,9.4,0,0,0,242,3.48l.18.06v5h3.36v.48h-3.36V19.32c0,1.23.6,1.89,1.68,1.89,1.8,0,2.61-1.38,2.7-4.65Z"/><path d="M264.27.12l.51-.12,8.34,21h2.67v.48h-9.12V21h2.88l-2.61-6.72h-6.09L258.93,21h2.91v.48h-6.39V21h2.76Zm-3.21,13.44h5.58l-3.27-8.34Z"/><path d="M285.72,21.48V18.93c-1.29,2.16-2.4,3-4,3-3,0-5.73-3.3-5.73-6.87,0-3.78,2.49-6.93,5.49-6.93,1.71,0,2.67.54,4.29,2.28V.87h-2.25V.39h4.86V21h2.4v.48Zm.21-6.81c0-3.48-1.65-6-3.9-6s-3.12,2-3.12,6.6c0,4.08,1,6.09,3.18,6.09S285.93,18.57,285.93,14.67Z"/><path d="M305.76,9.06h-2.43l-4.62,12.75-.51.12-5-12.87h-2.31V8.58h4.71L299.4,18l3.21-8.94h-2.28V8.58h5.43Z"/><path d="M307.53,21.48l0-.48h2.13V9.09h-2V8.58h4.59V21h2.07v.48Zm1.56-19.32A1.77,1.77,0,0,1,310.86.39a1.72,1.72,0,0,1,1.77,1.68A1.78,1.78,0,0,1,311,3.93,1.81,1.81,0,0,1,309.09,2.16Z"/><path d="M316.38,21.45c.06-.84.06-1.59.06-2.34s0-1.71-.12-2.67h.39c.87,3.48,2.4,5,5,5,1.74,0,2.94-.9,2.94-2.25,0-1.56-.87-2.1-4.14-3.21-2.94-1-4.2-2.25-4.2-4.14A3.7,3.7,0,0,1,320,8a6.36,6.36,0,0,1,3.39,1.23,1,1,0,0,0,.3.12c.27,0,.54-.42.66-1.05l.36,0c0,1.47,0,2.91.12,4.44h-.51c-.63-2.64-2.22-4.23-4.23-4.23-1.44,0-2.7,1-2.7,2.13s.75,1.74,3.72,2.7c3.57,1.14,4.83,2.31,4.83,4.41a4.13,4.13,0,0,1-4.26,4.17,5.73,5.73,0,0,1-3.15-1.05,2.55,2.55,0,0,0-.93-.48c-.39,0-.69.45-.72,1.05Z"/><path d="M340.86,15.06a6.58,6.58,0,1,1-6.57-7A6.91,6.91,0,0,1,340.86,15.06Zm-2.79,0c0-4.59-1.17-6.51-3.78-6.51s-3.78,1.92-3.78,6.51c0,4.32,1.05,6.36,3.78,6.36S338.07,19.38,338.07,15.06Z"/><path d="M342.36,21.48V21h2.19V9H342.3V8.55H347V11.4c.75-2.31,2-3.33,3.33-3.33a2.32,2.32,0,0,1,2.37,2.28c0,1-.51,1.65-1.29,1.65a1.17,1.17,0,0,1-1.2-1.14c0-.42.21-.84.21-1.38a.63.63,0,0,0-.72-.69,1.78,1.78,0,0,0-1.14.6A8.08,8.08,0,0,0,347.16,14V21h2.4v.48Z"/><path d="M368.67,9.06h-2.19l-4.86,17.22c-.51,1.86-1.8,3.06-3.3,3.06a2.9,2.9,0,0,1-2.82-2.7,1.44,1.44,0,0,1,1.35-1.5,1.35,1.35,0,0,1,1.26,1.26c0,.57-.33,1.05-.33,1.65a.61.61,0,0,0,.6.69c1.83,0,2.4-1,4-7L356.13,9.06h-2.46V8.58h5.07L363.33,18l2.49-8.94h-2.31V8.58h5.16Z"/></svg>